<?xml version="1.0" encoding="utf-8"?>
<svg width="145" height="32" viewBox="-23.424 -49.699 145.883 33.33" xmlns="http://www.w3.org/2000/svg">
  <defs/>
  <path d="M 55.698 -26.712 C 54.122 -25.106 52.238 -24.298 50.053 -24.298 C 48.286 -24.298 46.785 -24.66 45.253 -25.555 L 45.253 -29.239 C 46.485 -28.399 48.033 -27.599 49.561 -27.599 C 52.747 -27.599 54.644 -29.802 54.644 -32.926 C 54.644 -36.052 52.682 -38.321 49.494 -38.321 C 48.071 -38.321 46.917 -37.807 46.015 -36.776 C 45.049 -35.659 44.549 -34.062 44.549 -31.952 L 44.549 -17.405 L 44.309 -17.405 C 42.549 -17.409 41.126 -18.84 41.13 -20.6 L 41.13 -32.497 C 41.13 -37.546 44.201 -41.622 49.48 -41.622 C 52.085 -41.622 54.202 -40.727 55.807 -38.927 C 57.316 -37.246 58.063 -35.116 58.063 -32.552 C 58.063 -30.272 57.274 -28.321 55.698 -26.712 Z M -16.81 -24.638 C -20.155 -24.638 -21.814 -26.924 -21.814 -30.116 L -21.814 -42.229 C -21.818 -43.99 -20.395 -45.42 -18.634 -45.425 L -18.394 -45.425 L -18.394 -41.282 L -12.617 -41.282 L -12.617 -37.982 L -18.394 -37.982 L -18.394 -29.734 C -18.394 -28.332 -17.772 -27.938 -16.438 -27.938 L -12.618 -27.938 L -12.618 -24.638 L -16.809 -24.638 L -16.81 -24.638 Z M 3.048 -26.741 C 1.358 -25.114 -0.672 -24.298 -3.03 -24.298 C -5.367 -24.298 -7.386 -25.115 -9.075 -26.741 C -10.77 -28.375 -11.615 -30.454 -11.615 -32.96 C -11.615 -37.848 -7.901 -41.622 -3.03 -41.622 C -0.693 -41.622 1.332 -40.799 3.031 -39.16 C 4.737 -37.517 5.589 -35.444 5.589 -32.96 C 5.589 -30.454 4.743 -28.375 3.049 -26.741 L 3.048 -26.741 Z M 19.036 -37.277 C 18.534 -36.432 18.145 -35.825 17.871 -35.459 C 17.57 -35.061 17.272 -34.743 16.977 -34.523 C 19.353 -33.751 20.238 -32.097 20.238 -29.632 L 20.238 -24.638 L 19.998 -24.638 C 18.238 -24.642 16.814 -26.073 16.818 -27.833 L 16.818 -29.293 C 16.818 -30.889 16.106 -31.972 14.424 -31.972 L 11.316 -31.972 L 11.316 -24.638 L 11.076 -24.638 C 9.316 -24.643 7.894 -26.073 7.898 -27.833 L 7.898 -45.557 C 7.893 -47.317 9.316 -48.747 11.076 -48.752 L 11.316 -48.752 L 11.316 -35.306 L 12.327 -35.306 C 13.437 -35.306 14.167 -35.688 14.587 -36.41 L 17.458 -41.281 L 21.355 -41.285 L 19.034 -37.277 L 19.036 -37.277 Z M 36.686 -26.741 C 34.996 -25.114 32.966 -24.298 30.608 -24.298 C 28.271 -24.298 26.253 -25.115 24.563 -26.741 C 22.868 -28.375 22.023 -30.454 22.023 -32.96 C 22.023 -37.848 25.737 -41.622 30.608 -41.622 C 32.946 -41.622 34.97 -40.799 36.67 -39.16 C 38.375 -37.517 39.227 -35.444 39.227 -32.96 C 39.227 -30.454 38.381 -28.375 36.687 -26.741 L 36.686 -26.741 Z M 34.218 -36.833 C 33.276 -37.824 32.079 -38.321 30.608 -38.321 C 27.461 -38.321 25.578 -36.016 25.578 -32.96 C 25.578 -29.946 27.506 -27.598 30.608 -27.598 C 33.711 -27.598 35.638 -29.946 35.638 -32.96 C 35.638 -34.56 35.16 -35.844 34.218 -36.833 Z M 0.581 -36.833 C -0.361 -37.824 -1.559 -38.321 -3.029 -38.321 C -6.176 -38.321 -8.059 -36.016 -8.059 -32.96 C -8.059 -29.946 -6.131 -27.598 -3.029 -27.598 C 0.073 -27.598 2.001 -29.946 2.001 -32.96 C 2.001 -34.56 1.523 -35.844 0.581 -36.833 Z" fill="#03AC0E" fill-rule="evenodd"/>
  <path d="M 73.104 -33.685 C 73.104 -35.04 72.594 -36.113 71.57 -36.925 C 70.647 -37.656 69.494 -38.028 68.091 -38.028 C 64.996 -38.028 63.009 -35.597 63.009 -32.598 C 63.009 -29.713 65.116 -27.305 68.059 -27.305 C 70.106 -27.305 71.2 -28.507 72.368 -30.005 L 72.368 -25.688 C 71.773 -25.24 71.089 -24.751 70.391 -24.465 C 69.654 -24.155 68.774 -24.005 67.757 -24.005 C 62.836 -24.005 59.59 -28.102 59.59 -32.836 C 59.59 -35.267 60.341 -37.277 61.854 -38.844 C 63.459 -40.505 65.564 -41.329 68.142 -41.329 C 73.028 -41.329 76.524 -38.509 76.524 -33.414 L 76.524 -24.344 L 76.284 -24.344 C 74.523 -24.348 73.1 -25.779 73.104 -27.54 L 73.104 -33.685 Z" fill="#03AC0E" fill-rule="evenodd"/>
  <path d="M 111.696 -26.392 C 110.126 -24.699 108.106 -23.854 105.658 -23.854 C 103.073 -23.854 100.966 -24.75 99.363 -26.549 C 97.855 -28.251 97.107 -30.383 97.107 -32.923 C 97.107 -37.42 100.56 -41.178 105.105 -41.178 C 106.858 -41.178 108.38 -40.806 109.917 -39.958 L 109.917 -36.238 C 108.685 -37.078 107.137 -37.878 105.609 -37.878 C 102.423 -37.878 100.525 -35.674 100.525 -32.549 C 100.525 -29.467 102.533 -27.154 105.675 -27.154 C 107.097 -27.154 108.269 -27.69 109.205 -28.769 C 110.137 -29.842 110.621 -31.418 110.621 -33.534 L 110.621 -45.113 C 110.617 -46.873 112.04 -48.303 113.8 -48.308 L 114.04 -48.308 L 114.04 -32.991 C 114.04 -30.294 113.264 -28.086 111.696 -26.392 Z M 121.351 -42.813 C 120.992 -42.409 120.478 -42.223 119.851 -42.223 C 118.677 -42.223 117.837 -43.093 117.837 -44.264 C 117.837 -45.462 118.661 -46.271 119.85 -46.271 C 120.995 -46.271 121.864 -45.418 121.864 -44.264 C 121.864 -43.694 121.698 -43.204 121.351 -42.814 L 121.351 -42.813 Z M 91.917 -34.508 C 91.485 -35.851 90.943 -36.512 89.697 -37.211 C 86.734 -38.875 83.817 -37.458 82.461 -34.521 L 91.917 -34.508 Z M 89.308 -23.905 C 87.124 -23.438 84.981 -23.798 82.89 -24.972 C 80.85 -26.117 79.485 -27.819 78.8 -30.069 C 77.416 -34.619 80.251 -39.689 84.812 -40.916 C 87.072 -41.525 89.24 -41.249 91.299 -40.093 C 94.719 -38.171 95.965 -35.199 95.748 -31.369 L 81.972 -31.398 C 82.175 -29.836 83.138 -28.614 84.492 -27.854 C 85.866 -27.083 87.128 -26.898 88.299 -27.264 C 89.599 -27.674 90.655 -28.741 91.513 -29.734 L 94.32 -27.678 C 93.175 -25.618 91.616 -24.399 89.308 -23.906 L 89.308 -23.905 Z M 118.141 -40.838 L 121.56 -40.838 L 121.56 -24.193 L 121.32 -24.193 C 119.559 -24.197 118.136 -25.628 118.141 -27.389 L 118.141 -40.839 L 118.141 -40.838 Z" fill="#03AC0E" fill-rule="evenodd"/>
</svg>